<?xml version="1.0" encoding="UTF-8"?>
<svg id="Layer_2" data-name="Layer 2" xmlns="http://www.w3.org/2000/svg" viewBox="0 0 1959.36 1660.04">
  <defs>
    <style>
      .cls-1 {
        fill: #0367d7;
      }

      .cls-2 {
        fill: #646464;
      }

      .cls-3 {
        fill: #3885df;
      }

      .cls-4 {
        fill: #333;
      }
    </style>
  </defs>
  <g id="Layer_1-2" data-name="Layer 1">
    <rect class="cls-3" x="835.68" y="0" width="232.17" height="232.17" rx="8.51" ry="8.51"/>
    <rect class="cls-3" x="1183.93" y="348.25" width="232.17" height="232.17" rx="8.51" ry="8.51"/>
    <rect class="cls-3" x="835.68" y="696.5" width="232.17" height="232.17" rx="8.51" ry="8.51"/>
    <rect class="cls-3" x="487.43" y="348.25" width="232.17" height="232.17" rx="8.51" ry="8.51"/>
    <path class="cls-1" d="M1300.02,232.17h0c64.11,0,116.08-51.97,116.08-116.08h0c0-64.11-51.97-116.08-116.08-116.08h0c-64.11,0-116.08,51.97-116.08,116.08h0c0,128.23-103.95,232.17-232.17,232.17s-232.17-103.94-232.17-232.17h0c0-64.11-51.97-116.08-116.08-116.08h0c-64.11,0-116.08,51.97-116.08,116.08h0c0,64.11,51.97,116.08,116.08,116.08,128.22,0,232.16,103.94,232.17,232.15v.03c0,128.22-103.95,232.15-232.17,232.15-64.11,0-116.08,51.97-116.08,116.08s51.97,116.08,116.08,116.08h0c64.11,0,116.08-51.97,116.08-116.08h0c0-128.22,103.95-232.17,232.17-232.17s232.17,103.94,232.17,232.16h0c0,64.12,51.97,116.09,116.08,116.09h0c64.11,0,116.08-51.97,116.08-116.08s-51.97-116.08-116.08-116.08h0c-128.22,0-232.17-103.95-232.17-232.17h0c0-128.22,103.95-232.17,232.17-232.17Z"/>
    <g>
      <path class="cls-4" d="M239.87,1269.84c-10.81,40.91-43.27,78.97-116.42,78.97-83.27,0-123.45-57.6-123.45-121.27s44.27-121.72,126.49-121.72c71.39,0,106.99,39.7,113.79,78.67h-57.26c-4.79-13.34-17.39-34.79-57.16-34.79-43.58,0-66.23,33.19-66.23,75.73s20.7,79.81,66.57,79.81c33.15,0,47.72-12.89,56.78-35.39h56.89Z"/>
      <path class="cls-4" d="M321.61,1290.95l-20.34,52.89h-58.18l93.87-233.06h72.53l98.67,233.06h-61.16l-21.66-52.89h-103.72ZM409.53,1245.62c-21.69-53.41-32.25-80.64-37.83-98.44h-.33c-5.21,17.43-17.59,52.88-35.11,98.44h73.28Z"/>
      <path class="cls-4" d="M585.53,1254.03v89.81h-55.98v-233.06h126.92c53.74,0,84.5,26.51,84.5,66.58,0,30.09-17.49,47.81-40.55,55.13,9.54,3.76,34.56,12.92,34.56,54.78v11.64c0,15.99-.29,33.92,2.94,44.93h-58.06c-3.89-10.26-4.36-24.04-4.36-48.77v-7.65c0-23.55-8.64-33.39-42.61-33.39h-47.36ZM585.53,1211.61h58.29c27.46,0,39.36-9.9,39.36-29.55,0-18.42-12.19-28.86-38.87-28.86h-58.77v58.41Z"/>
      <path class="cls-4" d="M967.03,1245.51h-130.07v53.05h144.63l-6.51,45.29h-194.67v-233.06h193.65v45.29h-137.09v44.14h130.07v45.29Z"/>
      <path class="cls-4" d="M1079.5,1155.82h-82.03v-45.04h220.37v45.04h-81.74v188.02h-56.6v-188.02Z"/>
      <path class="cls-4" d="M1431.76,1245.51h-130.07v53.05h144.63l-6.51,45.29h-194.67v-233.06h193.65v45.29h-137.09v44.14h130.07v45.29Z"/>
      <path class="cls-4" d="M1703.28,1269.84c-10.81,40.91-43.27,78.97-116.42,78.97-83.27,0-123.45-57.6-123.45-121.27s44.27-121.72,126.49-121.72c71.39,0,106.99,39.7,113.79,78.67h-57.26c-4.79-13.34-17.39-34.79-57.16-34.79-43.58,0-66.23,33.19-66.23,75.73s20.7,79.81,66.57,79.81c33.15,0,47.72-12.89,56.78-35.39h56.89Z"/>
      <path class="cls-4" d="M1738.98,1110.78h56.56v87.62h107.26v-87.62h56.56v233.06h-56.56v-100.4h-107.26v100.4h-56.56v-233.06Z"/>
    </g>
    <g>
      <path class="cls-2" d="M156.73,1464.51l-13.88,7.76c-8.47-13.65-24.24-20.63-47.3-20.94-5.65,0-10.98.47-16,1.41-5.02.94-9.92,2.43-14.71,4.47-4.79,2.04-8.59,5.14-11.41,9.29-2.82,4.16-4.23,9.14-4.23,14.94,0,3.76.86,7.1,2.59,10,1.72,2.9,3.84,5.3,6.35,7.18,2.51,1.88,6,3.61,10.47,5.18,4.47,1.57,8.67,2.79,12.59,3.65,3.92.86,8.86,1.85,14.82,2.94,5.65.94,10.31,1.8,14,2.59,3.68.79,8.04,1.88,13.06,3.29,5.02,1.41,9.18,2.86,12.47,4.35,3.29,1.49,6.71,3.45,10.24,5.88,3.53,2.43,6.35,5.1,8.47,8,2.12,2.9,3.84,6.4,5.18,10.47,1.33,4.08,2,8.55,2,13.41,0,8.79-2,16.44-6,22.94-4,6.51-9.34,11.46-16,14.83-6.67,3.37-13.61,5.8-20.82,7.29-7.22,1.49-14.91,2.23-23.06,2.23-15.06,0-28.79-2.98-41.18-8.94-12.39-5.96-21.57-15.14-27.53-27.53l14.35-7.76c5.18,9.88,12.74,17.1,22.71,21.65,9.96,4.55,20.51,6.82,31.65,6.82,5.8,0,11.29-.43,16.47-1.29,5.18-.86,10.35-2.39,15.53-4.59,5.18-2.19,9.33-5.49,12.47-9.88,3.14-4.39,4.71-9.73,4.71-16,0-5.33-1.29-9.92-3.88-13.76-2.59-3.84-6.59-6.94-12-9.29-5.41-2.35-10.55-4.15-15.41-5.41-4.86-1.26-11.22-2.59-19.06-4-7.53-1.25-13.73-2.43-18.59-3.53-4.86-1.09-10.32-2.78-16.35-5.06-6.04-2.27-10.79-4.86-14.24-7.76-3.45-2.9-6.39-6.74-8.82-11.53-2.43-4.78-3.65-10.24-3.65-16.35-.16-8.16,1.68-15.33,5.53-21.53,3.84-6.19,8.94-10.98,15.3-14.35,6.35-3.37,13.02-5.84,20-7.41,6.98-1.56,14.24-2.35,21.77-2.35,28.55,0,49.02,9.57,61.41,28.71Z"/>
      <path class="cls-2" d="M268.26,1435.56c26.51.16,47.06,8.59,61.65,25.3,14.59,16.7,21.8,36.82,21.65,60.35,0,10.98-1.76,21.49-5.29,31.53-3.53,10.04-8.63,19.06-15.3,27.06-6.67,8-15.41,14.39-26.24,19.18-10.82,4.78-22.98,7.18-36.47,7.18-17.88,0-33.29-4.15-46.24-12.47-12.94-8.31-22.39-18.78-28.35-31.41-5.96-12.63-8.94-26.39-8.94-41.3,0-24.15,7.49-44.43,22.47-60.83,14.98-16.39,35.33-24.59,61.06-24.59ZM201.2,1521.21c.15,12.4,2.62,23.73,7.41,34,4.78,10.27,12.31,18.75,22.59,25.41,10.27,6.67,22.63,10,37.06,10,21.18,0,37.57-6.78,49.18-20.35,11.61-13.57,17.49-29.92,17.65-49.06,0-19.76-5.81-36.35-17.41-49.77-11.61-13.41-28.08-20.2-49.41-20.35-21.33,0-37.92,6.63-49.77,19.88-11.85,13.26-17.61,30-17.29,50.24Z"/>
      <path class="cls-2" d="M386.62,1438.39h16.47v149.18h91.53v15.53h-108v-164.71Z"/>
      <path class="cls-2" d="M628.04,1438.39h16.47v100.47c0,21.34-6.12,37.65-18.35,48.95-12.24,11.29-27.77,16.94-46.59,16.94s-34.71-5.68-47.18-17.06c-12.47-11.37-18.71-27.65-18.71-48.83v-100.47h16.47v100.47c0,15.38,4.67,27.65,14,36.83,9.33,9.18,21.14,13.76,35.41,13.76,13.49,0,24.94-4.35,34.35-13.06,9.41-8.7,14.12-21.21,14.12-37.53v-100.47Z"/>
      <path class="cls-2" d="M732.04,1646.63l8.24-7.53c4.08,5.65,10.04,8.63,17.88,8.94,8.15,0,13.02-2.83,14.59-8.47,1.57-4.55.12-8.23-4.35-11.06-4.47-2.83-10.47-3.14-18-.94l-2.82-2.35,5.41-20c-24-2.2-42.44-11.06-55.3-26.59-12.87-15.53-19.38-34.51-19.53-56.94-.16-15.37,2.86-29.41,9.06-42.12,6.19-12.71,15.92-23.14,29.18-31.3,13.25-8.16,29.06-12.24,47.41-12.24,11.45,0,22.31,2.08,32.59,6.24,10.27,4.16,18.86,10.31,25.77,18.47l-10.12,10.12c-13.49-13.18-29.57-19.76-48.24-19.76-21.81,0-38.79,6.87-50.94,20.59-12.16,13.73-18.24,30.32-18.24,49.77s6,36.79,18,49.65c12,12.86,29.06,19.29,51.18,19.29,19.45,0,35.92-6.74,49.41-20.24l10.59,10.59c-16.32,16.32-36,24.62-59.06,24.94l-3.06,11.3c9.57-.16,16.39,2.27,20.47,7.29,4.08,5.02,5.25,10.9,3.53,17.65-1.41,5.96-4.67,10.47-9.76,13.53-5.1,3.06-10.86,4.59-17.3,4.59-12.71-.32-21.57-4.79-26.59-13.41Z"/>
      <path class="cls-2" d="M924.28,1435.56c26.51.16,47.06,8.59,61.65,25.3,14.59,16.7,21.8,36.82,21.65,60.35,0,10.98-1.76,21.49-5.29,31.53-3.53,10.04-8.63,19.06-15.3,27.06-6.67,8-15.41,14.39-26.24,19.18-10.82,4.78-22.98,7.18-36.47,7.18-17.88,0-33.29-4.15-46.24-12.47-12.94-8.31-22.39-18.78-28.35-31.41-5.96-12.63-8.94-26.39-8.94-41.3,0-24.15,7.49-44.43,22.47-60.83,14.98-16.39,35.33-24.59,61.06-24.59ZM857.22,1521.21c.15,12.4,2.62,23.73,7.41,34,4.78,10.27,12.31,18.75,22.59,25.41,10.27,6.67,22.63,10,37.06,10,21.18,0,37.57-6.78,49.18-20.35,11.61-13.57,17.49-29.92,17.65-49.06,0-19.76-5.81-36.35-17.41-49.77-11.61-13.41-28.08-20.2-49.41-20.35-21.33,0-37.92,6.63-49.77,19.88-11.85,13.26-17.61,30-17.29,50.24ZM905.93,1414.39l-10.59-4.24c1.25-6.12,4-10.62,8.24-13.53,4.24-2.9,9.18-3.8,14.82-2.7,1.72.31,5.1,1.73,10.12,4.23,5.02,2.51,9.14,3.65,12.35,3.41,3.21-.23,5.61-2.7,7.18-7.41l10.59,4.23c-1.26,6.44-4,11.02-8.24,13.77-4.23,2.74-9.02,3.57-14.35,2.47-1.57-.47-3.76-1.37-6.59-2.7-2.82-1.33-5.26-2.39-7.29-3.18-2.04-.78-4.16-1.37-6.35-1.77-2.2-.39-4.16,0-5.88,1.18-1.73,1.17-3.06,3.26-4,6.24Z"/>
      <path class="cls-2" d="M1160.76,1587.57v15.53h-118.12v-164.71h116v15.53h-99.53v59.06h95.06v15.29h-95.06v59.3h101.65Z"/>
      <path class="cls-2" d="M1311.12,1464.51l-13.88,7.76c-8.47-13.65-24.24-20.63-47.3-20.94-5.65,0-10.98.47-16,1.41-5.02.94-9.92,2.43-14.71,4.47-4.79,2.04-8.59,5.14-11.41,9.29-2.82,4.16-4.24,9.14-4.24,14.94,0,3.76.86,7.1,2.59,10,1.73,2.9,3.84,5.3,6.35,7.18,2.51,1.88,6,3.61,10.47,5.18,4.47,1.57,8.67,2.79,12.59,3.65,3.92.86,8.86,1.85,14.82,2.94,5.65.94,10.31,1.8,14,2.59,3.68.79,8.04,1.88,13.06,3.29,5.02,1.41,9.18,2.86,12.47,4.35,3.29,1.49,6.71,3.45,10.24,5.88,3.53,2.43,6.35,5.1,8.47,8,2.12,2.9,3.84,6.4,5.18,10.47,1.33,4.08,2,8.55,2,13.41,0,8.79-2,16.44-6,22.94-4,6.51-9.33,11.46-16,14.83-6.67,3.37-13.61,5.8-20.82,7.29-7.22,1.49-14.91,2.23-23.06,2.23-15.06,0-28.79-2.98-41.18-8.94-12.39-5.96-21.57-15.14-27.53-27.53l14.35-7.76c5.18,9.88,12.74,17.1,22.71,21.65,9.96,4.55,20.51,6.82,31.65,6.82,5.8,0,11.3-.43,16.47-1.29,5.18-.86,10.36-2.39,15.53-4.59,5.18-2.19,9.33-5.49,12.47-9.88,3.14-4.39,4.71-9.73,4.71-16,0-5.33-1.29-9.92-3.88-13.76-2.59-3.84-6.59-6.94-12-9.29-5.41-2.35-10.55-4.15-15.41-5.41-4.87-1.26-11.22-2.59-19.06-4-7.53-1.25-13.73-2.43-18.59-3.53-4.86-1.09-10.31-2.78-16.35-5.06-6.04-2.27-10.79-4.86-14.24-7.76-3.45-2.9-6.39-6.74-8.82-11.53-2.43-4.78-3.65-10.24-3.65-16.35-.16-8.16,1.68-15.33,5.53-21.53,3.84-6.19,8.94-10.98,15.3-14.35,6.35-3.37,13.02-5.84,20-7.41,6.98-1.56,14.23-2.35,21.76-2.35,28.55,0,49.02,9.57,61.42,28.71Z"/>
      <path class="cls-2" d="M1411.11,1438.39h58.12c13.49,0,25.61,2.27,36.35,6.82,10.74,4.55,19.41,10.67,26,18.35,6.59,7.69,11.61,16.28,15.06,25.77,3.45,9.49,5.18,19.41,5.18,29.77s-1.65,21.1-4.94,30.83c-3.3,9.73-8.16,18.63-14.59,26.71-6.44,8.08-15.1,14.51-26,19.29-10.9,4.78-23.26,7.18-37.06,7.18h-58.12v-164.71ZM1427.59,1453.92v133.89h41.65c8.94,0,17.14-1.33,24.59-4,7.45-2.67,13.69-6.24,18.71-10.71,5.02-4.47,9.3-9.68,12.82-15.65,3.53-5.96,6.08-12.19,7.65-18.71,1.57-6.51,2.27-13.14,2.12-19.88-.32-11.14-2.75-21.49-7.29-31.06-4.55-9.57-11.93-17.61-22.12-24.12-10.2-6.51-22.36-9.77-36.47-9.77h-41.65Z"/>
      <path class="cls-2" d="M1705.24,1587.57v15.53h-118.12v-164.71h116.01v15.53h-99.54v59.06h95.06v15.29h-95.06v59.3h101.65Z"/>
      <path class="cls-2" d="M1841.71,1603.1v-149.18h-58.12v-15.53h132.71v15.53h-58.12v149.18h-16.47Z"/>
      <path class="cls-2" d="M1959.36,1603.1h-16.47v-164.71h16.47v164.71Z"/>
    </g>
  </g>
</svg>