<?xml version="1.0" encoding="UTF-8"?>
<svg id="Layer_2" data-name="Layer 2" xmlns="http://www.w3.org/2000/svg" viewBox="0 0 2241.48 478.73">
  <defs>
    <style>
      .cls-1 {
        fill: #0367d7;
      }

      .cls-2 {
        fill: #646464;
      }

      .cls-3 {
        fill: #3885df;
      }

      .cls-4 {
        fill: #333;
      }
    </style>
  </defs>
  <g id="Layer_1-2" data-name="Layer 1">
    <g>
      <g>
        <rect class="cls-3" x="172.91" y="0" width="115.27" height="115.27" rx="8.51" ry="8.51"/>
        <rect class="cls-3" x="345.82" y="172.91" width="115.27" height="115.27" rx="8.51" ry="8.51"/>
        <rect class="cls-3" x="172.91" y="345.82" width="115.27" height="115.27" rx="8.51" ry="8.51"/>
        <rect class="cls-3" y="172.91" width="115.27" height="115.27" rx="8.51" ry="8.51"/>
        <path class="cls-1" d="M403.45,115.27h0c31.83,0,57.64-25.8,57.64-57.64h0c0-31.83-25.8-57.64-57.64-57.64h0c-31.83,0-57.64,25.8-57.64,57.64h0c0,63.66-51.61,115.27-115.27,115.27s-115.27-51.61-115.27-115.27h0C115.27,25.8,89.47,0,57.64,0h0C25.8,0,0,25.8,0,57.64H0C0,89.47,25.8,115.27,57.64,115.27c63.66,0,115.27,51.61,115.27,115.27h0c0,63.67-51.61,115.28-115.27,115.28C25.8,345.82,0,371.62,0,403.45s25.8,57.64,57.64,57.64h0c31.83,0,57.64-25.8,57.64-57.64h0c0-63.66,51.61-115.27,115.27-115.27s115.27,51.61,115.27,115.27h0c0,31.83,25.8,57.64,57.64,57.64h0c31.83,0,57.64-25.8,57.64-57.64s-25.8-57.64-57.64-57.64h0c-63.66,0-115.27-51.61-115.27-115.27h0c0-63.66,51.61-115.27,115.27-115.27Z"/>
      </g>
      <g>
        <path class="cls-4" d="M812.59,154.47c-8.99,34-35.96,65.62-96.74,65.62-69.2,0-102.59-47.87-102.59-100.77s36.79-101.15,105.11-101.15c59.32,0,88.91,32.99,94.56,65.37h-47.58c-3.98-11.08-14.45-28.91-47.5-28.91-36.21,0-55.04,27.58-55.04,62.93s17.2,66.32,55.32,66.32c27.55,0,39.66-10.71,47.19-29.41h47.28Z"/>
        <path class="cls-4" d="M880.51,172.01l-16.9,43.95h-48.34l78-193.67h60.27l82,193.67h-50.83l-18-43.95h-86.19ZM953.57,134.34c-18.02-44.39-26.8-67.01-31.44-81.8h-.28c-4.33,14.49-14.62,43.94-29.18,81.8h60.89Z"/>
        <path class="cls-4" d="M1099.83,141.33v74.63h-46.52V22.29h105.47c44.66,0,70.22,22.03,70.22,55.33,0,25-14.53,39.73-33.7,45.81,7.93,3.12,28.72,10.73,28.72,45.52v9.67c0,13.28-.24,28.19,2.44,37.34h-48.24c-3.23-8.52-3.62-19.97-3.62-40.53v-6.36c0-19.57-7.18-27.74-35.41-27.74h-39.36ZM1099.83,106.08h48.44c22.82,0,32.71-8.23,32.71-24.56,0-15.31-10.13-23.99-32.3-23.99h-48.84v48.54Z"/>
        <path class="cls-4" d="M1416.86,134.25h-108.08v44.08h120.18l-5.41,37.64h-161.77V22.29h160.93v37.63h-113.92v36.68h108.08v37.64Z"/>
        <path class="cls-4" d="M1510.32,59.72h-68.17V22.29h183.13v37.43h-67.93v156.24h-47.03V59.72Z"/>
        <path class="cls-4" d="M1803.05,134.25h-108.08v44.08h120.18l-5.41,37.64h-161.77V22.29h160.93v37.63h-113.92v36.68h108.08v37.64Z"/>
        <path class="cls-4" d="M2028.68,154.47c-8.99,34-35.96,65.62-96.74,65.62-69.2,0-102.59-47.87-102.59-100.77s36.79-101.15,105.11-101.15c59.32,0,88.91,32.99,94.56,65.37h-47.58c-3.98-11.08-14.45-28.91-47.5-28.91-36.22,0-55.04,27.58-55.04,62.93s17.2,66.32,55.32,66.32c27.55,0,39.66-10.71,47.19-29.41h47.28Z"/>
        <path class="cls-4" d="M2058.35,22.29h47v72.81h89.13V22.29h47v193.67h-47v-83.43h-89.13v83.43h-47V22.29Z"/>
      </g>
      <g>
        <path class="cls-2" d="M743.5,316.24l-11.54,6.45c-7.04-11.34-20.14-17.14-39.3-17.4-4.69,0-9.13.39-13.3,1.17-4.17.78-8.25,2.02-12.22,3.72-3.98,1.7-7.14,4.27-9.48,7.72-2.35,3.46-3.52,7.6-3.52,12.42,0,3.13.71,5.9,2.15,8.31,1.43,2.41,3.19,4.4,5.28,5.97,2.08,1.56,4.99,3,8.7,4.3,3.71,1.3,7.2,2.31,10.46,3.03,3.26.72,7.36,1.53,12.32,2.44,4.69.78,8.57,1.5,11.63,2.15,3.06.65,6.68,1.56,10.85,2.74,4.17,1.17,7.63,2.38,10.36,3.62,2.74,1.24,5.57,2.87,8.51,4.89,2.93,2.02,5.28,4.24,7.04,6.65,1.76,2.41,3.19,5.31,4.3,8.7,1.11,3.39,1.66,7.11,1.66,11.14,0,7.3-1.66,13.66-4.99,19.06-3.32,5.41-7.76,9.52-13.3,12.32-5.54,2.8-11.31,4.82-17.3,6.06-6,1.24-12.39,1.86-19.16,1.86-12.51,0-23.92-2.47-34.22-7.43-10.3-4.95-17.93-12.58-22.88-22.88l11.93-6.45c4.3,8.21,10.59,14.21,18.87,17.99,8.28,3.78,17.04,5.67,26.3,5.67,4.82,0,9.39-.36,13.69-1.08,4.3-.72,8.6-1.99,12.9-3.81,4.3-1.82,7.76-4.56,10.36-8.21,2.61-3.65,3.91-8.08,3.91-13.3,0-4.43-1.08-8.24-3.23-11.44-2.15-3.19-5.47-5.77-9.97-7.72-4.5-1.96-8.77-3.45-12.81-4.5-4.04-1.04-9.32-2.15-15.84-3.32-6.26-1.04-11.41-2.02-15.45-2.93-4.04-.91-8.57-2.31-13.59-4.2-5.02-1.89-8.96-4.04-11.83-6.45-2.87-2.41-5.31-5.6-7.33-9.58-2.02-3.98-3.03-8.51-3.03-13.59-.13-6.78,1.4-12.74,4.59-17.89,3.19-5.15,7.43-9.12,12.71-11.93,5.28-2.8,10.82-4.85,16.62-6.16,5.8-1.3,11.83-1.95,18.09-1.95,23.72,0,40.74,7.95,51.03,23.86Z"/>
        <path class="cls-2" d="M836.18,292.18c22.03.13,39.11,7.14,51.23,21.02,12.12,13.88,18.12,30.6,17.99,50.15,0,9.13-1.47,17.86-4.4,26.2-2.93,8.35-7.17,15.84-12.71,22.49-5.54,6.65-12.81,11.96-21.8,15.94-8.99,3.97-19.1,5.96-30.31,5.96-14.86,0-27.67-3.45-38.42-10.36-10.75-6.91-18.61-15.61-23.56-26.1-4.96-10.49-7.43-21.93-7.43-34.32,0-20.07,6.22-36.92,18.67-50.55,12.45-13.62,29.36-20.43,50.74-20.43ZM780.46,363.36c.13,10.3,2.18,19.72,6.16,28.26,3.97,8.54,10.23,15.58,18.77,21.12,8.54,5.54,18.8,8.31,30.8,8.31,17.6,0,31.22-5.64,40.87-16.91,9.65-11.27,14.53-24.86,14.67-40.77,0-16.42-4.82-30.21-14.47-41.36-9.65-11.15-23.34-16.78-41.06-16.91-17.73,0-31.51,5.51-41.36,16.52-9.84,11.02-14.63,24.93-14.37,41.75Z"/>
        <path class="cls-2" d="M934.54,294.53h13.69v123.97h76.06v12.9h-89.75v-136.87Z"/>
        <path class="cls-2" d="M1135.16,294.53h13.69v83.49c0,17.73-5.08,31.29-15.25,40.67-10.17,9.38-23.07,14.08-38.72,14.08s-28.84-4.72-39.2-14.18c-10.36-9.45-15.55-22.98-15.55-40.57v-83.49h13.69v83.49c0,12.78,3.88,22.98,11.63,30.6,7.75,7.63,17.56,11.44,29.43,11.44,11.21,0,20.73-3.62,28.55-10.85,7.82-7.23,11.73-17.63,11.73-31.19v-83.49Z"/>
        <path class="cls-2" d="M1221.58,467.58l6.84-6.26c3.39,4.69,8.34,7.17,14.86,7.43,6.78,0,10.82-2.35,12.12-7.04,1.3-3.78.1-6.84-3.62-9.19-3.71-2.35-8.7-2.61-14.96-.78l-2.35-1.96,4.5-16.62c-19.94-1.83-35.26-9.19-45.95-22.1-10.69-12.91-16.1-28.68-16.23-47.32-.13-12.77,2.38-24.44,7.53-35,5.15-10.56,13.23-19.23,24.25-26.01,11.01-6.78,24.15-10.17,39.4-10.17,9.51,0,18.54,1.73,27.08,5.18,8.54,3.46,15.67,8.57,21.41,15.35l-8.41,8.41c-11.21-10.95-24.57-16.42-40.08-16.42-18.12,0-32.23,5.7-42.33,17.11-10.1,11.41-15.15,25.19-15.15,41.36s4.99,30.57,14.96,41.26c9.97,10.69,24.15,16.03,42.53,16.03,16.16,0,29.85-5.6,41.06-16.82l8.8,8.8c-13.56,13.56-29.92,20.46-49.08,20.73l-2.54,9.39c7.95-.13,13.62,1.89,17.01,6.06,3.39,4.17,4.37,9.06,2.93,14.66-1.17,4.95-3.88,8.7-8.11,11.24-4.24,2.54-9.03,3.81-14.37,3.81-10.56-.26-17.92-3.98-22.1-11.15Z"/>
        <path class="cls-2" d="M1381.33,292.18c22.03.13,39.11,7.14,51.23,21.02,12.12,13.88,18.12,30.6,17.99,50.15,0,9.13-1.47,17.86-4.4,26.2-2.93,8.35-7.17,15.84-12.71,22.49-5.54,6.65-12.81,11.96-21.8,15.94-8.99,3.97-19.1,5.96-30.31,5.96-14.86,0-27.67-3.45-38.42-10.36-10.75-6.91-18.61-15.61-23.56-26.1-4.96-10.49-7.43-21.93-7.43-34.32,0-20.07,6.22-36.92,18.67-50.55,12.45-13.62,29.36-20.43,50.74-20.43ZM1325.61,363.36c.13,10.3,2.18,19.72,6.16,28.26,3.97,8.54,10.23,15.58,18.77,21.12,8.54,5.54,18.8,8.31,30.8,8.31,17.6,0,31.22-5.64,40.87-16.91,9.65-11.27,14.53-24.86,14.67-40.77,0-16.42-4.82-30.21-14.47-41.36-9.65-11.15-23.34-16.78-41.06-16.91-17.73,0-31.51,5.51-41.36,16.52-9.84,11.02-14.63,24.93-14.37,41.75ZM1366.08,274.59l-8.8-3.52c1.04-5.08,3.32-8.83,6.84-11.24,3.52-2.41,7.63-3.16,12.32-2.25,1.43.26,4.24,1.43,8.41,3.52,4.17,2.09,7.59,3.03,10.27,2.84,2.67-.2,4.66-2.25,5.96-6.16l8.8,3.52c-1.05,5.35-3.32,9.16-6.84,11.44-3.52,2.28-7.5,2.97-11.93,2.05-1.3-.39-3.13-1.14-5.47-2.25-2.35-1.11-4.37-1.99-6.06-2.64-1.7-.65-3.46-1.14-5.28-1.47-1.83-.32-3.46,0-4.89.98-1.44.98-2.54,2.71-3.32,5.18Z"/>
        <path class="cls-2" d="M1577.84,418.5v12.9h-98.16v-136.87h96.4v12.9h-82.71v49.08h79v12.71h-79v49.28h84.47Z"/>
        <path class="cls-2" d="M1702.79,316.24l-11.54,6.45c-7.04-11.34-20.14-17.14-39.3-17.4-4.69,0-9.12.39-13.29,1.17-4.17.78-8.25,2.02-12.22,3.72-3.98,1.7-7.14,4.27-9.48,7.72-2.35,3.46-3.52,7.6-3.52,12.42,0,3.13.72,5.9,2.15,8.31,1.43,2.41,3.19,4.4,5.28,5.97,2.08,1.56,4.99,3,8.7,4.3,3.72,1.3,7.2,2.31,10.46,3.03,3.25.72,7.36,1.53,12.32,2.44,4.69.78,8.57,1.5,11.63,2.15,3.06.65,6.68,1.56,10.85,2.74,4.17,1.17,7.63,2.38,10.36,3.62,2.74,1.24,5.57,2.87,8.51,4.89,2.93,2.02,5.28,4.24,7.04,6.65,1.76,2.41,3.19,5.31,4.3,8.7,1.11,3.39,1.66,7.11,1.66,11.14,0,7.3-1.66,13.66-4.99,19.06-3.32,5.41-7.76,9.52-13.3,12.32-5.54,2.8-11.31,4.82-17.3,6.06-6,1.24-12.39,1.86-19.16,1.86-12.51,0-23.92-2.47-34.22-7.43-10.3-4.95-17.92-12.58-22.88-22.88l11.93-6.45c4.3,8.21,10.59,14.21,18.87,17.99,8.28,3.78,17.04,5.67,26.3,5.67,4.82,0,9.39-.36,13.69-1.08s8.61-1.99,12.91-3.81c4.3-1.82,7.75-4.56,10.36-8.21,2.61-3.65,3.91-8.08,3.91-13.3,0-4.43-1.08-8.24-3.23-11.44-2.15-3.19-5.48-5.77-9.97-7.72-4.5-1.96-8.77-3.45-12.81-4.5-4.04-1.04-9.32-2.15-15.84-3.32-6.26-1.04-11.41-2.02-15.45-2.93-4.04-.91-8.57-2.31-13.59-4.2-5.02-1.89-8.96-4.04-11.83-6.45-2.87-2.41-5.31-5.6-7.33-9.58-2.02-3.98-3.03-8.51-3.03-13.59-.13-6.78,1.4-12.74,4.59-17.89,3.19-5.15,7.43-9.12,12.71-11.93,5.28-2.8,10.82-4.85,16.62-6.16,5.8-1.3,11.83-1.95,18.09-1.95,23.73,0,40.74,7.95,51.04,23.86Z"/>
        <path class="cls-2" d="M1785.89,294.53h48.3c11.21,0,21.28,1.89,30.21,5.67,8.93,3.78,16.13,8.87,21.61,15.25,5.48,6.39,9.65,13.53,12.52,21.41,2.86,7.89,4.3,16.13,4.3,24.74s-1.37,17.53-4.11,25.62c-2.74,8.08-6.78,15.48-12.12,22.19-5.35,6.72-12.55,12.06-21.61,16.03-9.06,3.98-19.33,5.96-30.79,5.96h-48.3v-136.87ZM1799.58,307.43v111.26h34.61c7.43,0,14.24-1.11,20.43-3.32,6.19-2.22,11.37-5.18,15.54-8.9s7.73-8.05,10.66-13c2.93-4.95,5.05-10.13,6.36-15.54,1.3-5.41,1.89-10.92,1.76-16.52-.26-9.25-2.28-17.86-6.06-25.81-3.78-7.95-9.91-14.63-18.38-20.04-8.48-5.41-18.58-8.12-30.31-8.12h-34.61Z"/>
        <path class="cls-2" d="M2030.31,418.5v12.9h-98.16v-136.87h96.4v12.9h-82.71v49.08h79v12.71h-79v49.28h84.47Z"/>
        <path class="cls-2" d="M2143.72,431.4v-123.97h-48.3v-12.9h110.28v12.9h-48.3v123.97h-13.69Z"/>
        <path class="cls-2" d="M2241.48,431.4h-13.69v-136.87h13.69v136.87Z"/>
      </g>
    </g>
  </g>
</svg>